<mxfile host="app.diagrams.net" modified="2023-04-03T16:51:23.026Z" agent="5.0 (X11; Linux x86_64) AppleWebKit/537.36 (KHTML, like Gecko) Chrome/107.0.0.0 Safari/537.36" etag="X26M791qYRrl-uqNvEIf" version="21.0.10" type="github">
  <diagram id="C5RBs43oDa-KdzZeNtuy" name="Page-1">
    <mxGraphModel dx="1869" dy="627" grid="1" gridSize="10" guides="1" tooltips="1" connect="1" arrows="1" fold="1" page="1" pageScale="1" pageWidth="827" pageHeight="1169" math="0" shadow="0">
      <root>
        <mxCell id="WIyWlLk6GJQsqaUBKTNV-0" />
        <mxCell id="WIyWlLk6GJQsqaUBKTNV-1" parent="WIyWlLk6GJQsqaUBKTNV-0" />
        <mxCell id="HegRmn5COVroGt1w4sWr-6" style="edgeStyle=orthogonalEdgeStyle;rounded=0;orthogonalLoop=1;jettySize=auto;html=1;entryX=0;entryY=0.5;entryDx=0;entryDy=0;fontStyle=1;fontSize=20;strokeWidth=4;" edge="1" parent="WIyWlLk6GJQsqaUBKTNV-1" source="WIyWlLk6GJQsqaUBKTNV-3" target="HegRmn5COVroGt1w4sWr-3">
          <mxGeometry relative="1" as="geometry" />
        </mxCell>
        <mxCell id="WIyWlLk6GJQsqaUBKTNV-3" value="Busca da&lt;br&gt;próxima instrução" style="rounded=1;whiteSpace=wrap;html=1;fontSize=20;glass=0;strokeWidth=4;shadow=0;fontStyle=1" parent="WIyWlLk6GJQsqaUBKTNV-1" vertex="1">
          <mxGeometry x="240" y="160" width="200" height="120" as="geometry" />
        </mxCell>
        <mxCell id="HegRmn5COVroGt1w4sWr-5" style="edgeStyle=orthogonalEdgeStyle;rounded=0;orthogonalLoop=1;jettySize=auto;html=1;entryX=0;entryY=0.5;entryDx=0;entryDy=0;fontStyle=1;fontSize=20;strokeWidth=4;" edge="1" parent="WIyWlLk6GJQsqaUBKTNV-1" source="HegRmn5COVroGt1w4sWr-0" target="WIyWlLk6GJQsqaUBKTNV-3">
          <mxGeometry relative="1" as="geometry" />
        </mxCell>
        <mxCell id="HegRmn5COVroGt1w4sWr-0" value="Início" style="ellipse;whiteSpace=wrap;html=1;fontSize=20;strokeWidth=4;fontStyle=1" vertex="1" parent="WIyWlLk6GJQsqaUBKTNV-1">
          <mxGeometry y="180" width="160" height="80" as="geometry" />
        </mxCell>
        <mxCell id="HegRmn5COVroGt1w4sWr-1" value="Fim" style="ellipse;whiteSpace=wrap;html=1;fontSize=20;strokeWidth=4;fontStyle=1" vertex="1" parent="WIyWlLk6GJQsqaUBKTNV-1">
          <mxGeometry x="810" y="180" width="140" height="80" as="geometry" />
        </mxCell>
        <mxCell id="HegRmn5COVroGt1w4sWr-7" style="edgeStyle=orthogonalEdgeStyle;rounded=0;orthogonalLoop=1;jettySize=auto;html=1;entryX=0;entryY=0.5;entryDx=0;entryDy=0;fontStyle=1;fontSize=20;strokeWidth=4;" edge="1" parent="WIyWlLk6GJQsqaUBKTNV-1" source="HegRmn5COVroGt1w4sWr-3" target="HegRmn5COVroGt1w4sWr-1">
          <mxGeometry relative="1" as="geometry" />
        </mxCell>
        <mxCell id="HegRmn5COVroGt1w4sWr-8" style="edgeStyle=orthogonalEdgeStyle;rounded=0;orthogonalLoop=1;jettySize=auto;html=1;strokeWidth=4;" edge="1" parent="WIyWlLk6GJQsqaUBKTNV-1" source="HegRmn5COVroGt1w4sWr-3">
          <mxGeometry relative="1" as="geometry">
            <mxPoint x="200" y="220" as="targetPoint" />
            <Array as="points">
              <mxPoint x="620" y="80" />
              <mxPoint x="200" y="80" />
              <mxPoint x="200" y="160" />
            </Array>
          </mxGeometry>
        </mxCell>
        <mxCell id="HegRmn5COVroGt1w4sWr-3" value="Execução da instrução" style="rounded=1;whiteSpace=wrap;html=1;fontSize=20;glass=0;strokeWidth=4;shadow=0;fontStyle=1" vertex="1" parent="WIyWlLk6GJQsqaUBKTNV-1">
          <mxGeometry x="520" y="160" width="200" height="120" as="geometry" />
        </mxCell>
        <mxCell id="HegRmn5COVroGt1w4sWr-9" value="Ciclo de execução" style="text;html=1;strokeColor=none;fillColor=none;align=center;verticalAlign=middle;whiteSpace=wrap;rounded=0;fontSize=20;fontStyle=1" vertex="1" parent="WIyWlLk6GJQsqaUBKTNV-1">
          <mxGeometry x="590" y="30" width="60" height="30" as="geometry" />
        </mxCell>
        <mxCell id="HegRmn5COVroGt1w4sWr-10" value="Ciclo de&lt;br style=&quot;font-size: 20px;&quot;&gt;busca" style="text;html=1;strokeColor=none;fillColor=none;align=center;verticalAlign=middle;whiteSpace=wrap;rounded=0;fontSize=20;fontStyle=1" vertex="1" parent="WIyWlLk6GJQsqaUBKTNV-1">
          <mxGeometry x="290" y="30" width="90" height="30" as="geometry" />
        </mxCell>
      </root>
    </mxGraphModel>
  </diagram>
</mxfile>
